<svg width="800" height="450" viewBox="0 0 800 450" fill="none" xmlns="http://www.w3.org/2000/svg">
  <rect width="800" height="450" fill="#1F2937"/>
  <path d="M400 225C400 238.255 389.255 249 376 249C362.745 249 352 238.255 352 225C352 211.745 362.745 201 376 201C389.255 201 400 211.745 400 225Z" fill="#4B5563"/>
  <path d="M376 225C376 231.627 370.627 237 364 237C357.373 237 352 231.627 352 225C352 218.373 357.373 213 364 213C370.627 213 376 218.373 376 225Z" fill="#9CA3AF"/>
  <path d="M364 225C364 227.761 361.761 230 359 230C356.239 230 354 227.761 354 225C354 222.239 356.239 220 359 220C361.761 220 364 222.239 364 225Z" fill="#1F2937"/>
</svg> 