<svg width="100" height="100" viewBox="0 0 100 100" fill="none" xmlns="http://www.w3.org/2000/svg">
  <defs>
    <pattern id="stars" width="100" height="100" patternUnits="userSpaceOnUse">
      <!-- Tiny stars -->
      <circle cx="5" cy="5" r="0.3" fill="currentColor"/>
      <circle cx="15" cy="15" r="0.3" fill="currentColor"/>
      <circle cx="25" cy="8" r="0.3" fill="currentColor"/>
      <circle cx="35" cy="18" r="0.3" fill="currentColor"/>
      <circle cx="45" cy="5" r="0.3" fill="currentColor"/>
      <circle cx="55" cy="15" r="0.3" fill="currentColor"/>
      <circle cx="65" cy="8" r="0.3" fill="currentColor"/>
      <circle cx="75" cy="18" r="0.3" fill="currentColor"/>
      <circle cx="85" cy="5" r="0.3" fill="currentColor"/>
      <circle cx="95" cy="15" r="0.3" fill="currentColor"/>
      
      <!-- Small stars -->
      <circle cx="10" cy="25" r="0.5" fill="currentColor"/>
      <circle cx="20" cy="35" r="0.5" fill="currentColor"/>
      <circle cx="30" cy="45" r="0.5" fill="currentColor"/>
      <circle cx="40" cy="55" r="0.5" fill="currentColor"/>
      <circle cx="50" cy="65" r="0.5" fill="currentColor"/>
      <circle cx="60" cy="75" r="0.5" fill="currentColor"/>
      <circle cx="70" cy="85" r="0.5" fill="currentColor"/>
      <circle cx="80" cy="95" r="0.5" fill="currentColor"/>
      <circle cx="90" cy="85" r="0.5" fill="currentColor"/>
      <circle cx="100" cy="75" r="0.5" fill="currentColor"/>
      
      <!-- Medium stars -->
      <circle cx="15" cy="45" r="0.8" fill="currentColor"/>
      <circle cx="35" cy="65" r="0.8" fill="currentColor"/>
      <circle cx="55" cy="85" r="0.8" fill="currentColor"/>
      <circle cx="75" cy="65" r="0.8" fill="currentColor"/>
      <circle cx="95" cy="45" r="0.8" fill="currentColor"/>
      
      <!-- Large stars -->
      <circle cx="25" cy="25" r="1.2" fill="currentColor"/>
      <circle cx="50" cy="50" r="1.2" fill="currentColor"/>
      <circle cx="75" cy="25" r="1.2" fill="currentColor"/>
      
      <!-- Shooting stars -->
      <path d="M 0 20 L 10 10" stroke="currentColor" stroke-width="0.2"/>
      <path d="M 20 0 L 30 10" stroke="currentColor" stroke-width="0.2"/>
      <path d="M 40 20 L 50 10" stroke="currentColor" stroke-width="0.2"/>
      <path d="M 60 0 L 70 10" stroke="currentColor" stroke-width="0.2"/>
      <path d="M 80 20 L 90 10" stroke="currentColor" stroke-width="0.2"/>
    </pattern>
  </defs>
  <rect width="100" height="100" fill="url(#stars)" fill-opacity="0.4"/>
</svg> 